# xmcd
#
# Track frame offsets:
#	150
#	9762
#	22150
#	42260
#	62152
#	72017
#	89495
#	100100
#	112825
#	122618
#	133716
#	151635
#
# Disc length: 2328 seconds
#
# Revision: 0
# Processed by: cddbd v1.5.1PL0 Copyright (c) Steve Scherf et al.
# Submitted via: dBpowerAMP V4.0
#
DISCID=8d09160c
DTITLE=Andy Boy - Bluemind
DYEAR=1900
DGENRE=blues
TTITLE0=Hard Kick
TTITLE1=Stick with Me
TTITLE2=Bring it on Home to me
TTITLE3=Summertime
TTITLE4=Blue Mind
TTITLE5=Devil Girl
TTITLE6=Cool Time
TTITLE7=Take a Ride with Me
TTITLE8=Jump n' Boogie
TTITLE9=When the Saints Go Marchin' In
TTITLE10=Deep Minor
TTITLE11=Winter's Night
EXTD=
EXTT0=
EXTT1=
EXTT2=
EXTT3=
EXTT4=
EXTT5=
EXTT6=
EXTT7=
EXTT8=
EXTT9=
EXTT10=
EXTT11=
PLAYORDER=
